<?xml version="1.0"?>
<svg xmlns="http://www.w3.org/2000/svg" height="512px" viewBox="0 0 512 512" width="512px"><g><path d="m512 126.101562c0-33.699218-13.121094-65.382812-36.953125-89.210937-49.1875-49.1875-129.226563-49.1875-178.417969 0l-119.230468 119.234375 178.417968 178.417969 119.230469-119.234375c23.832031-23.828125 36.953125-55.511719 36.953125-89.207032zm0 0" data-original="#000000" class="active-path" data-old_color="#000000" fill="#0082A8"/><path d="m156.183594 177.335938-119.230469 119.234374c-23.832031 23.828126-36.953125 55.507813-36.953125 89.210938 0 33.695312 13.121094 65.378906 36.953125 89.207031 24.59375 24.59375 56.902344 36.890625 89.207031 36.890625 32.308594 0 64.613282-12.296875 89.210938-36.890625l119.230468-119.234375zm0 0" data-original="#000000" class="active-path" data-old_color="#000000" fill="#0082A8"/></g> </svg>
