<?xml version="1.0"?>
<svg xmlns="http://www.w3.org/2000/svg" height="512px" viewBox="-90 0 512 512" width="512px" class=""><g><path d="m273.886719 153.089844-30.886719-10.414063v-22.675781h35v-120h-223v120h34v22.675781l-30.886719 10.414063c-34.757812 11.714844-58.113281 44.230468-58.113281 80.910156v218c0 33.085938 26.914062 60 60 60h212c33.085938 0 60-26.914062 60-60v-218c0-36.679688-23.355469-69.195312-58.113281-80.910156zm-178.886719-113.089844h143v40h-143zm197 412c0 11.027344-8.972656 20-20 20h-212c-11.027344 0-20-8.972656-20-20v-181h212v-40h-211.894531c1.199219-18.25 13.261719-34.101562 30.78125-40.007812l58.113281-19.589844v-51.402344h74v51.402344l58.113281 19.589844c18.472657 6.226562 30.886719 23.511718 30.886719 43.007812zm-106-101h40v40h-40v40h-40v-40h-40v-40h40v-40h40zm0 0" data-original="#000000" class="active-path" data-old_color="#000000" fill="#0082A8"/></g> </svg>
