<?xml version="1.0"?>
<svg xmlns="http://www.w3.org/2000/svg" height="512px" viewBox="0 0 512 512.0005" width="512px"><g><path d="m507.46875 121.800781-117.40625-117.40625c-5.859375-5.859375-15.359375-5.859375-21.21875 0s-5.859375 15.359375 0 21.21875l16.335938 16.335938-77.316407 77.316406-16.285156-16.28125c-5.855469-5.859375-15.355469-5.859375-21.21875 0-5.859375 5.859375-5.859375 15.359375 0 21.21875l5.691406 5.6875-159.136719 159.136719c-5.859374 5.859375-5.859374 15.359375 0 21.21875l10.59375 10.59375-31.828124 31.828125c-2.816407 2.8125-4.394532 6.628906-4.394532 10.609375 0 3.976562 1.578125 7.792968 4.394532 10.609375l10.609374 10.609375-101.894531 101.890625c-5.859375 5.859375-5.859375 15.359375 0 21.21875 2.929688 2.929687 6.769531 4.394531 10.609375 4.394531s7.679688-1.464844 10.609375-4.394531l101.894531-101.894531 10.609376 10.609374c2.8125 2.816407 6.628906 4.398438 10.605468 4.398438 3.980469 0 7.796875-1.582031 10.609375-4.398438l31.828125-31.824218 10.59375 10.589844c2.8125 2.816406 6.628906 4.398437 10.609375 4.398437 3.976563 0 7.792969-1.582031 10.605469-4.398437l159.140625-159.132813 5.6875 5.6875c2.929687 2.929687 6.769531 4.394531 10.609375 4.394531s7.679688-1.464844 10.609375-4.394531c5.859375-5.859375 5.859375-15.359375 0-21.21875l-16.285156-16.28125 77.320312-77.320313 16.199219 16.199219c2.929688 2.929688 6.769531 4.398438 10.609375 4.398438s7.679687-1.464844 10.609375-4.398438c5.859375-5.859375 5.859375-15.359375 0-21.21875zm-358.742188 262.691407-21.21875-21.21875 21.21875-21.214844 21.214844 21.214844zm63.636719-21.234376-63.621093-63.621093 21.214843-21.21875 7.8125 7.8125c2.929688 2.929687 6.769531 4.394531 10.609375 4.394531s7.679688-1.464844 10.609375-4.394531c5.859375-5.859375 5.859375-15.359375 0-21.21875l-7.8125-7.8125 20.742188-20.742188 64.03125 63.214844zm84.808594-84.804687-64.035156-63.214844 21.695312-21.691406 7.8125 7.808594c2.929688 2.929687 6.769531 4.394531 10.605469 4.394531 3.839844 0 7.679688-1.464844 10.609375-4.394531 5.859375-5.859375 5.859375-15.359375 0-21.21875l-7.808594-7.808594 21.214844-21.222656 63.625 63.625zm74.34375-95.535156-42.4375-42.433594 77.320313-77.320313 42.4375 42.4375zm0 0" data-original="#000000" class="active-path" data-old_color="#000000" fill="#0082A8"/></g> </svg>
