<?xml version="1.0"?>
<svg xmlns="http://www.w3.org/2000/svg" height="512px" viewBox="0 -107 512.001 512" width="512px" class=""><g><path d="m503.769531 99.773438c-20.222656-58.023438-75.476562-99.773438-140.304687-99.773438-30.433594 0-59.96875 9.332031-84.722656 26.527344 19.214843 20.492187 33.667968 45.5 41.554687 73.246094zm0 0" data-original="#000000" class="active-path" data-old_color="#000000" fill="#0082A8"/><path d="m327.066406 148.535156c0 6.335938-.339844 12.59375-.984375 18.761719h184.738281c.777344-6.148437 1.179688-12.410156 1.179688-18.761719 0-6.355468-.402344-12.617187-1.179688-18.761718h-184.738281c.644531 6.164062.984375 12.421874.984375 18.761718zm0 0" data-original="#000000" class="active-path" data-old_color="#000000" fill="#0082A8"/><path d="m503.769531 197.292969h-183.472656c-7.886719 27.746093-22.339844 52.753906-41.554687 73.246093 24.753906 17.199219 54.289062 26.527344 84.726562 26.527344 64.824219 0 120.078125-41.75 140.300781-99.773437zm0 0" data-original="#000000" class="active-path" data-old_color="#000000" fill="#0082A8"/><path d="m297.066406 148.535156c0-23.1875-5.34375-45.144531-14.859375-64.71875l-198.390625 198.390625c19.574219 9.515625 41.53125 14.859375 64.71875 14.859375 81.898438 0 148.53125-66.632812 148.53125-148.53125zm0 0" data-original="#000000" class="active-path" data-old_color="#000000" fill="#0082A8"/><path d="m57.660156 265.941406 208.28125-208.28125c-7.695312-9.917968-16.617187-18.839844-26.535156-26.53125l-208.28125 208.277344c7.695312 9.917969 16.617188 18.839844 26.535156 26.535156zm0 0" data-original="#000000" class="active-path" data-old_color="#000000" fill="#0082A8"/><path d="m0 148.535156c0 23.183594 5.34375 45.144532 14.859375 64.714844l198.390625-198.390625c-19.574219-9.515625-41.53125-14.859375-64.714844-14.859375-81.902344 0-148.535156 66.632812-148.535156 148.535156zm0 0" data-original="#000000" class="active-path" data-old_color="#000000" fill="#0082A8"/></g> </svg>
